<?xml version="1.0" encoding="UTF-8"?><svg xmlns="http://www.w3.org/2000/svg" viewBox="0 0 446.15994 110.20552"><defs><style>.uuid-415459e2-fca5-4076-869c-532aaf012652{fill:#c155ff;stroke-width:0px;}</style></defs><g id="uuid-d575daf0-81d1-422b-a23c-19cdb1558044"><path class="uuid-415459e2-fca5-4076-869c-532aaf012652" d="m3.13086,106.8188c-2.08838-2.08691-3.13086-4.91895-3.13086-8.49707V29.95503c0-3.49219.93652-6.17529,2.81152-8.05029,1.87256-1.87305,4.55615-2.81152,8.05029-2.81152h32.71338c9.96777,0,17.71875,2.53613,23.25732,7.60352,5.53711,5.06934,8.30615,12.11963,8.30615,21.14844,0,8.94531-2.79102,15.97363-8.37012,21.08496-5.58057,5.11133-13.31152,7.66699-23.19336,7.66699h-20.0625v21.72461c0,3.57812-1.06592,6.41016-3.19434,8.49707-2.13037,2.08887-5.02783,3.13086-8.68945,3.13086-3.57812,0-6.41162-1.04199-8.49805-3.13086Zm37.25-47.85596c4.34473,0,7.55908-.89453,9.64795-2.68359,2.08643-1.78906,3.13086-4.55615,3.13086-8.30615,0-7.41162-4.26123-11.11719-12.77881-11.11719h-16.86816v22.10693h16.86816Z"/><path class="uuid-415459e2-fca5-4076-869c-532aaf012652" d="m133.72803,51.74312c4.64258,4.64404,6.96484,11.69238,6.96484,21.14893v26.70703c0,3.23828-.9585,5.77246-2.87549,7.60352-1.91699,1.83203-4.58008,2.74707-7.98682,2.74707-2.98291,0-5.43066-.85059-7.34766-2.55566-1.9165-1.70312-2.96094-4.00391-3.13086-6.90039-1.19385,3.06641-3.19434,5.45312-6.00586,7.15625-2.81104,1.70312-6.17773,2.55566-10.09521,2.55566-4.34473,0-8.26416-.87402-11.75635-2.62012-3.49414-1.74414-6.2417-4.17285-8.24219-7.2832-2.00244-3.10938-3.00293-6.62305-3.00293-10.54297,0-4.51367,1.16992-8.11426,3.51416-10.79785,2.3418-2.68359,6.06982-4.62012,11.18115-5.81348,5.11182-1.19287,12.01221-1.78955,20.70166-1.78955h3.4502v-1.53369c0-2.98096-.68311-5.13135-2.04443-6.45312-1.36377-1.31982-3.66406-1.98096-6.90088-1.98096-3.49414,0-8.60547,1.19434-15.33398,3.57812-1.96094.68311-3.62207,1.02246-4.98389,1.02246-2.13037,0-3.8335-.7666-5.11133-2.30029-1.27783-1.5332-1.91699-3.53418-1.91699-6.00586,0-1.87305.3833-3.40625,1.1499-4.60059.76709-1.19189,2.00098-2.25586,3.70605-3.19434,2.98096-1.53369,6.72852-2.76758,11.24512-3.70605,4.51465-.93652,8.94531-1.40576,13.29004-1.40576,9.71191,0,16.8877,2.32227,21.53174,6.96484Zm-17.57031,39.99658c1.9585-2.17188,2.93896-4.96094,2.93896-8.36914v-1.5332h-2.04443c-5.45312,0-9.32861.49023-11.62891,1.46875-2.2998.98047-3.4502,2.61914-3.4502,4.91992,0,1.96094.61719,3.57812,1.85303,4.85547,1.23389,1.27832,2.83105,1.91699,4.79199,1.91699,3.06689,0,5.57861-1.08594,7.53955-3.25879Z"/><path class="uuid-415459e2-fca5-4076-869c-532aaf012652" d="m156.72803,107.32954c-2.17236-1.74414-3.2583-4.36426-3.2583-7.8584V29.0605c0-3.49219,1.08594-6.1333,3.2583-7.92236s4.87598-2.68359,8.11426-2.68359c3.2373,0,5.94238.89453,8.11523,2.68359,2.17188,1.78906,3.25781,4.43018,3.25781,7.92236v70.41064c0,3.49414-1.08594,6.11426-3.25781,7.8584-2.17285,1.74805-4.87793,2.62012-8.11523,2.62012-3.23828,0-5.94189-.87207-8.11426-2.62012Z"/><path class="uuid-415459e2-fca5-4076-869c-532aaf012652" d="m192.63525,107.32954c-2.17188-1.74414-3.25879-4.36426-3.25879-7.8584V29.0605c0-3.49219,1.08691-6.1333,3.25879-7.92236,2.17285-1.78906,4.87598-2.68359,8.11426-2.68359,3.2373,0,5.94238.89453,8.11523,2.68359,2.17188,1.78906,3.25781,4.43018,3.25781,7.92236v70.41064c0,3.49414-1.08594,6.11426-3.25781,7.8584-2.17285,1.74805-4.87793,2.62012-8.11523,2.62012-3.23828,0-5.94141-.87207-8.11426-2.62012Z"/><path class="uuid-415459e2-fca5-4076-869c-532aaf012652" d="m281.19092,91.29243c1.2334,1.5332,1.85254,3.53711,1.85254,6.00586,0,3.4082-1.66113,6.00586-4.9834,7.79492-2.89746,1.4502-6.3252,2.66406-10.28711,3.64258-3.96094.97852-7.60352,1.46973-10.92578,1.46973-6.98633,0-13.07812-1.31934-18.27344-3.96191-5.19727-2.63867-9.2002-6.43164-12.01172-11.37305-2.81152-4.93945-4.2168-10.73438-4.2168-17.37891,0-6.30322,1.3418-11.94775,4.02539-16.93164,2.68359-4.9834,6.43066-8.85889,11.24512-11.62842,4.81152-2.76758,10.24316-4.15332,16.29297-4.15332,5.87793,0,11.03125,1.27832,15.46191,3.83398,4.42871,2.55566,7.8584,6.17773,10.28711,10.86182,2.42773,4.68604,3.6416,10.18115,3.6416,16.48438,0,1.96094-.44727,3.47266-1.3418,4.53711-.89453,1.06543-2.19434,1.59668-3.89746,1.59668h-33.73535c.59473,4.08887,1.91602,7.02832,3.96094,8.81738s5.06738,2.68359,9.07324,2.68359c2.12793,0,4.08887-.23438,5.87793-.70312,1.78906-.4668,3.79004-1.12793,6.00586-1.98047,1.27832-.51172,2.53418-.95898,3.76953-1.3418,1.23438-.38281,2.36426-.5752,3.38672-.5752,1.95898,0,3.55566.7666,4.79199,2.2998Zm-33.7998-28.3042c-1.78906,1.9165-2.85547,4.70801-3.19434,8.37012h20.0625c-.51172-7.49561-3.75-11.24561-9.71191-11.24561-2.9834,0-5.36719.9585-7.15625,2.87549Z"/><path class="uuid-415459e2-fca5-4076-869c-532aaf012652" d="m337.86279,101.38814c0,2.98242-1.15039,5.19727-3.4502,6.64453s-5.58105,2.04492-9.83984,1.78906l-3.57812-.25586c-7.66699-.59375-13.48145-2.91602-17.44238-6.96387-3.96191-4.0459-5.94238-9.69043-5.94238-16.93164v-22.61816h-3.70605c-6.81641,0-10.22266-2.81152-10.22266-8.43408,0-5.53662,3.40625-8.30615,10.22266-8.30615h3.70605v-8.30615c0-3.23682,1.02246-5.81445,3.06738-7.73096,2.04395-1.91699,4.81152-2.87549,8.30566-2.87549,3.49219,0,6.26172.9585,8.30664,2.87549,2.04395,1.9165,3.06641,4.49414,3.06641,7.73096v8.30615h7.02832c6.81445,0,10.22266,2.76953,10.22266,8.30615,0,5.62256-3.4082,8.43408-10.22266,8.43408h-7.02832v24.53516c0,1.61914.48926,2.98242,1.46973,4.08887.97852,1.1084,2.23633,1.70508,3.76953,1.78906l3.70605.25488c5.70605.3418,8.56152,2.89844,8.56152,7.66797Z"/><path class="uuid-415459e2-fca5-4076-869c-532aaf012652" d="m346.10498,33.08589c-3.73058-3.30542-4.19614-8.6378-1.98434-12.93602,2.04468-3.97344,4.96039-7.57135,8.08888-10.74474,2.98817-3.03109,5.22085-7.42177,9.40731-9.01369,1.37182-.52164,2.99017-.57721,4.25142.17333,1.73161,1.03046,2.39262,3.26282,1.95877,5.15472-.73943,3.22449-1.49799,6.63968-1.64203,10.02236-.1079,2.53385.30469,5.05379.46154,7.57873.28711,4.62194-.22443,9.74982-5.13311,11.67875-4.87768,1.91673-11.33937,1.69178-15.40843-1.91343Zm1.02246,74.24366c-2.17188-1.74414-3.25879-4.36426-3.25879-7.8584v-43.9585c0-3.49219,1.08691-6.11182,3.25879-7.85889,2.17285-1.74512,4.87598-2.61963,8.11426-2.61963,3.2373,0,5.94238.87451,8.11523,2.61963,2.17188,1.74707,3.25781,4.3667,3.25781,7.85889v43.9585c0,3.49414-1.08594,6.11426-3.25781,7.8584-2.17285,1.74805-4.87793,2.62012-8.11523,2.62012-3.23828,0-5.94141-.87207-8.11426-2.62012Z"/></g><g id="uuid-fc8faf30-a901-4a4d-8b65-fcd62010a2a9"><path class="uuid-415459e2-fca5-4076-869c-532aaf012652" d="m411.10183,40.04612c17.6487.06077,32.59655,13.28046,34.7771,30.81103.46219,3.7157.36637,7.40489-.37757,11.06605-.55831,2.74764-2.25302,4.58211-4.93438,5.33281-2.68369.75137-5.07401.06024-6.97522-2.01345-1.95354-2.13075-3.74495-4.42052-5.79738-6.44833-7.2039-7.11752-18.49761-5.45186-23.52626,3.35165-1.40397,2.4579-2.90532,4.8705-4.52324,7.19149-.80589,1.15609-1.95374,2.08179-2.99042,3.06586-.56673.53797-.97133,1.09572-.80524,1.9092.16541.81021.73078,1.2257,1.48442,1.44137,2.37401.67937,4.7607,1.31867,7.11515,2.06027,1.03228.32515,2.06757.75029,2.98006,1.32338,1.88375,1.1831,2.63697,3.45001,2.01791,5.61375-.59923,2.09441-2.54267,3.60707-4.75094,3.64201-5.24991.08306-10.03203-1.51047-14.14788-4.65284-11.35123-8.66644-16.34547-20.2483-13.95316-34.31433,2.43471-14.31534,11.14965-23.61064,25.01889-27.98304,1.41146-.44497,2.89168-.71393,4.36005-.92506,1.66425-.2393,3.3511-.32136,5.02812-.47179Zm7.57077,13.27268c.02022-2.63964-2.14661-4.82929-4.79465-4.84514-2.61313-.01565-4.77549,2.11084-4.80993,4.73013-.03586,2.72765,2.09188,4.92336,4.779,4.93165,2.64377.00816,4.80516-2.14922,4.82559-4.81665Zm-24.37602,23.85785c.00322-2.69285-2.10428-4.83215-4.76995-4.84192-2.65367-.00972-4.81746,2.1374-4.83762,4.80036-.02001,2.64369,2.1579,4.84265,4.79452,4.84083,2.68553-.00184,4.80985-2.12008,4.81305-4.79927Zm-3.28199-17.81701c-.00355,2.68517,2.12686,4.84856,4.77384,4.84775,2.6447-.00081,4.8263-2.17796,4.82958-4.81973.0033-2.6565-2.12544-4.8038-4.80138-4.84324-2.62706-.03872-4.79851,2.13869-4.80204,4.81522Zm33.8604,4.3433c.0102,2.69963,2.11078,4.8087,4.79447,4.81387,2.66083.00512,4.79072-2.12871,4.80748-4.81638.01643-2.63687-2.17101-4.83298-4.81084-4.82986-2.65704.00313-4.80119,2.16575-4.79111,4.83238Z"/><path class="uuid-415459e2-fca5-4076-869c-532aaf012652" d="m418.87564,87.83569c.00253,2.36878-1.84428,4.24768-4.18981,4.26262-2.40691.01533-4.29815-1.85326-4.29234-4.24094.00587-2.41717,1.86724-4.27662,4.27094-4.26656,2.35068.00984,4.20868,1.8827,4.21121,4.24488Z"/></g></svg>